<?xml version="1.0" encoding="UTF-8"?>
<!DOCTYPE svg PUBLIC "-//W3C//DTD SVG 1.1//EN" "http://www.w3.org/Graphics/SVG/1.1/DTD/svg11.dtd">
<!-- Creator: CorelDRAW 2017 -->
<svg xmlns="http://www.w3.org/2000/svg" xml:space="preserve" width="75px" height="75px" version="1.1" style="shape-rendering:geometricPrecision; text-rendering:geometricPrecision; image-rendering:optimizeQuality; fill-rule:evenodd; clip-rule:evenodd"
viewBox="0 0 454000 454000"
 xmlns:xlink="http://www.w3.org/1999/xlink">
 <defs>
  <style type="text/css">
   <![CDATA[
    .fil0 {fill:#8f7f6a}
   ]]>
  </style>
 </defs>
 <g id="Слой_x0020_1">
  <metadata id="CorelCorpID_0Corel-Layer"/>
  <path class="fil0" d="M227000 41000c61000,0 68000,0 92000,1000 62000,3000 90000,32000 93000,93000 1000,24000 2000,32000 2000,92000 0,61000 -1000,68000 -2000,92000 -3000,61000 -31000,90000 -93000,93000 -24000,1000 -31000,2000 -92000,2000 -60000,0 -68000,-1000 -92000,-2000 -61000,-3000 -90000,-32000 -93000,-93000 -1000,-24000 -1000,-31000 -1000,-92000 0,-60000 0,-68000 1000,-92000 3000,-61000 32000,-90000 93000,-93000 24000,-1000 32000,-1000 92000,-1000l0 0zm0 -41000c-61000,0 -69000,0 -93000,1000 -83000,4000 -129000,50000 -133000,133000 -1000,24000 -1000,32000 -1000,93000 0,62000 0,70000 1000,94000 4000,82000 50000,128000 133000,132000 24000,1000 32000,1000 93000,1000 62000,0 70000,0 94000,-1000 82000,-4000 128000,-49000 132000,-132000 1000,-24000 1000,-32000 1000,-94000 0,-61000 0,-69000 -1000,-93000 -4000,-83000 -49000,-129000 -132000,-133000 -24000,-1000 -32000,-1000 -94000,-1000l0 0zm0 111000c-64000,0 -116000,52000 -116000,116000 0,65000 52000,117000 116000,117000 65000,0 117000,-52000 117000,-117000 0,-64000 -52000,-116000 -117000,-116000zm0 192000c-42000,0 -76000,-34000 -76000,-76000 0,-42000 34000,-76000 76000,-76000 42000,0 76000,34000 76000,76000 0,42000 -34000,76000 -76000,76000zm122000 -224000c-16000,0 -28000,12000 -28000,27000 0,15000 12000,27000 28000,27000 15000,0 27000,-12000 27000,-27000 0,-15000 -12000,-27000 -27000,-27000z"/>
 </g>
</svg>
